PathFileType	4	(X/Y/Z)	path1_14_0-593.trc
DataRate	CameraRate	NumFrames	NumMarkers	Units	OrigDataRate	OrigDataStartFrame	OrigNumFrames
30	30	5	22	m	30	74	593
Frame#	Time	Hip			RHip			RKnee			RAnkle			RBigToe			RSmallToe			RHeel			LHip			LKnee			LAnkle			LBigToe			LSmallToe			LHeel			Neck			Head			Nose			RShoulder			RElbow			RWrist			LShoulder			LElbow			LWrist		
		X1	Y1	Z1	X2	Y2	Z2	X3	Y3	Z3	X4	Y4	Z4	X5	Y5	Z5	X6	Y6	Z6	X7	Y7	Z7	X8	Y8	Z8	X9	Y9	Z9	X10	Y10	Z10	X11	Y11	Z11	X12	Y12	Z12	X13	Y13	Z13	X14	Y14	Z14	X15	Y15	Z15	X16	Y16	Z16	X17	Y17	Z17	X18	Y18	Z18	X19	Y19	Z19	X20	Y20	Z20	X21	Y21	Z21	X22	Y22	Z22
75	2.5	2.5046099920093514	0.8427340228308009	0.5725510388858346	2.5097895748971513	0.8056853814737165	0.49382552425351495	2.4842692487897713	0.46551987792616556	0.49707251098202454	2.5481392181583913	0.098519361695378	0.5431972939155401	2.352790257814212	0.030608938158204375	0.5237485644934614	2.387057436450541	0.022232654129812544	0.4622032435169958	2.585722395273282	0.037861852620736096	0.5387708192300973	2.500646049557858	0.80539645126639	0.6515669281016515	2.506875279691406	0.4416453297906254	0.6351391830314903	2.543371612887037	0.09337458921388254	0.6392647027642158	2.3638278394527865	0.022150883165984927	0.6584257840646076	2.3978243074143872	0.019758984809461456	0.707877905944912	2.5945240530526936	0.033191435493068466	0.6567740393863721	2.478703542891872	1.4733689274527606	0.5894788244630716	2.444547850914049	1.7182248642515514	0.5417845318275467	2.346525615785302	1.6043363211206048	0.5670318848714969	2.5237616716959184	1.3673925242175375	0.4125213786432712	2.5599264708741685	1.0781367221552633	0.4088523342587351	2.5332815510749596	0.8517459508573169	0.37664710305189497	2.490175117911023	1.3511170355316902	0.757141373829423	2.5393238154546163	1.0788653072426486	0.7783104243768413	2.541939135820014	0.8465263509318323	0.7789975403355367
76	2.533333333333333	2.5044014890555153	0.842679238238372	0.572902922637867	2.5095810207160847	0.8055579889376724	0.4940981175827532	2.4840324787395334	0.4657698637769837	0.4972415015009446	2.548344948441482	0.09822888692184396	0.5437611628980491	2.3528473017853178	0.029972012370020968	0.5237078832774396	2.3871673744540693	0.02203585498247289	0.461949102527701	2.5870696013827503	0.03759164297390513	0.539467875063711	2.5005958782190216	0.8052807503060438	0.6515781706529412	2.506933938474772	0.44179942694781676	0.6354104002779172	2.544385071120564	0.09183346530761125	0.6389618455507966	2.36422820163058	0.022304839238902426	0.6586697662653731	2.398037419746893	0.02011108459857292	0.7083071726941413	2.5955466892107983	0.03320097800142626	0.6579589731568501	2.478813666891786	1.4734994644092934	0.5894536858920665	2.444600168333068	1.7183712667892832	0.5426104197882339	2.3465348870833598	1.6042908983997166	0.5674962553949596	2.5244942096384198	1.3687717336733587	0.4148810944583957	2.559583141457324	1.0781337609217905	0.4089709387768722	2.533193737369408	0.8514607517874297	0.37709633224854433	2.4891722329053114	1.350739641337049	0.7585730330777785	2.5396704485384216	1.0789772264457311	0.7778996435065093	2.542705542057319	0.8465881031752108	0.7785668751524615
77	2.566666666666667	2.5044146103261045	0.8426678023461548	0.5733199105736291	2.5096170466065084	0.8056043763938074	0.4945678502372328	2.4838976280988345	0.4661136364963431	0.4975186729352862	2.5486942000265556	0.09789657021510575	0.5444177291058557	2.3530629390694386	0.029692883377674804	0.5236106888697303	2.3875452552863203	0.021810861820913713	0.4621158642026532	2.58883572774025	0.037176261172671955	0.5404609482677903	2.50040627142138	0.8054487805725323	0.6517806064727875	2.5068129218347956	0.44212301595332404	0.6360171815894717	2.5444373021080895	0.09136375988285152	0.639298887271478	2.3646003978626546	0.022193403599998388	0.6586432001248907	2.398189324787288	0.020234141311342685	0.7085720758113186	2.5948202346092457	0.03416827947941196	0.6584233962004371	2.4789879177752003	1.4736315603475898	0.5897085803916782	2.444740826619486	1.7185421113292922	0.5442560789980392	2.3467002108909263	1.6043425608889093	0.5685273193989644	2.525453027985013	1.3704427476761336	0.4176546498026125	2.5593215059934162	1.0783381940820966	0.40892066763389023	2.5331053654756883	0.8513414249658673	0.37747958271387616	2.4885420225750847	1.3506505569328942	0.7592222942040407	2.540060857157975	1.0789647625997463	0.7776725769275695	2.5434079874113364	0.8464269473980577	0.7783704329492193
78	2.6	2.504597394191786	0.8426610708051013	0.5737216965559081	2.5098686144117255	0.8058655597521744	0.4951241492873343	2.4839034881903004	0.46646432147971206	0.49782957570572617	2.5489629183389804	0.09768661469569488	0.5449550010000946	2.35337127177033	0.029829262411271044	0.5235528260514192	2.388072621965175	0.021645193644175484	0.46260128431722497	2.590528285703266	0.03684617745038133	0.5414460592189191	2.500086945079127	0.8059394341200504	0.6521819703882208	2.5065208677380966	0.4425502162948065	0.6367467229404157	2.5437176506235155	0.09196227324874819	0.6400585995460505	2.36489018705844	0.021782835067372136	0.6583390774402733	2.3982309351398534	0.0201480694374051	0.7085635874543713	2.592398983596112	0.035718809256923695	0.657681963780333	2.4791516254531363	1.473706415495624	0.5901512075875162	2.4447632464625486	1.7186605029361226	0.5465936016387848	2.3469316975803536	1.604439156048363	0.569826644237172	2.5263013446715306	1.371862534146542	0.42001579669433486	2.5591493603577318	1.0786284184192196	0.4087592136808305	2.5330351128827098	0.851394436152122	0.37770805540509644	2.488358968616808	1.3508137064618981	0.759125992098959	2.540438910001974	1.078822878958086	0.7775781468557283	2.543920100945795	0.846153265462425	0.7783062760589025
79	2.6333333333333333	2.5048644411379692	0.8426269586437785	0.5741077529623647	2.510311030833632	0.8063132891439054	0.49570792592232	2.4840305885225935	0.46674578615052265	0.4980717533202231	2.5490051942987053	0.0977411082524939	0.5452143824289473	2.353682887044929	0.030338850016308726	0.523719941675137	2.388676053301519	0.02160669550558305	0.46331980918713334	2.5920042868809667	0.03667198669284414	0.542296765221075	2.4997076417606476	0.8066950222493519	0.6527781632476235	2.5061330752226154	0.44305534502579463	0.6374103555241586	2.5425402241316637	0.0934667913698773	0.6409976171554299	2.3651184321359087	0.02109749239697942	0.6578366193850637	2.398070168629342	0.019743666563073446	0.7080836394072523	2.5886537193070867	0.037493511032967296	0.655720842062802	2.4792737493777377	1.4736765933370732	0.5906293474979928	2.444422060639005	1.718635101950442	0.5492217048222814	2.3471462072526688	1.6044918555914394	0.5709287515637282	2.5268977276283726	1.3728143630594976	0.42167721333601893	2.559051590711799	1.078862845505626	0.40854880986546915	2.532983347774271	0.8515530755067201	0.3777258749963574	2.4886181265804774	1.351209090624701	0.7583288258595421	2.540774790784106	1.0786182476216202	0.7775453005464781	2.5442024183384664	0.8459312980258661	0.7782864958675315
